<mxfile host="app.diagrams.net" modified="2023-10-31T19:14:45.917Z" agent="Mozilla/5.0 (Windows NT 10.0; Win64; x64) AppleWebKit/537.36 (KHTML, like Gecko) Chrome/118.0.0.0 Safari/537.36" etag="kxcYGGynpewkEhRVvlqt" version="22.0.8" type="github">
  <diagram name="Страница — 1" id="lsqSExBfPt3mLH9uzq2N">
    <mxGraphModel dx="1908" dy="728" grid="1" gridSize="10" guides="1" tooltips="1" connect="1" arrows="1" fold="1" page="1" pageScale="1" pageWidth="827" pageHeight="1169" math="0" shadow="0">
      <root>
        <mxCell id="0" />
        <mxCell id="1" parent="0" />
        <mxCell id="ItAPapNalUJXnHxEnPfn-4" value="&lt;p align=&quot;center&quot; class=&quot;MsoNormal&quot;&gt;&lt;b&gt;TRUE&lt;/b&gt;&lt;/p&gt;" style="text;html=1;strokeColor=none;fillColor=none;align=center;verticalAlign=middle;whiteSpace=wrap;rounded=0;" vertex="1" parent="1">
          <mxGeometry x="400" y="180" width="60" height="30" as="geometry" />
        </mxCell>
        <mxCell id="ItAPapNalUJXnHxEnPfn-6" value="" style="endArrow=classic;html=1;rounded=0;entryX=0.25;entryY=0;entryDx=0;entryDy=0;" edge="1" parent="1" target="ItAPapNalUJXnHxEnPfn-10">
          <mxGeometry width="50" height="50" relative="1" as="geometry">
            <mxPoint x="645" y="185" as="sourcePoint" />
            <mxPoint x="700" y="250" as="targetPoint" />
          </mxGeometry>
        </mxCell>
        <mxCell id="ItAPapNalUJXnHxEnPfn-11" value="Рівень володіння зброєю." style="ellipse;whiteSpace=wrap;html=1;" vertex="1" parent="1">
          <mxGeometry x="345" y="215" width="140" height="90" as="geometry" />
        </mxCell>
        <mxCell id="ItAPapNalUJXnHxEnPfn-15" value="" style="endArrow=classic;html=1;rounded=0;exitX=0.057;exitY=0.797;exitDx=0;exitDy=0;exitPerimeter=0;entryX=0.66;entryY=0.055;entryDx=0;entryDy=0;entryPerimeter=0;" edge="1" parent="1" source="ItAPapNalUJXnHxEnPfn-11" target="ItAPapNalUJXnHxEnPfn-20">
          <mxGeometry width="50" height="50" relative="1" as="geometry">
            <mxPoint x="357" y="281" as="sourcePoint" />
            <mxPoint x="270.98" y="319.99" as="targetPoint" />
          </mxGeometry>
        </mxCell>
        <mxCell id="ItAPapNalUJXnHxEnPfn-16" value="&lt;p align=&quot;center&quot; class=&quot;MsoNormal&quot;&gt;&lt;b&gt;Погано&lt;/b&gt;&lt;/p&gt;" style="text;html=1;strokeColor=none;fillColor=none;align=center;verticalAlign=middle;whiteSpace=wrap;rounded=0;" vertex="1" parent="1">
          <mxGeometry x="270" y="275" width="60" height="30" as="geometry" />
        </mxCell>
        <mxCell id="ItAPapNalUJXnHxEnPfn-17" value="" style="endArrow=classic;html=1;rounded=0;exitX=1;exitY=1;exitDx=0;exitDy=0;entryX=0.131;entryY=-0.063;entryDx=0;entryDy=0;entryPerimeter=0;" edge="1" parent="1" source="ItAPapNalUJXnHxEnPfn-11" target="ItAPapNalUJXnHxEnPfn-22">
          <mxGeometry width="50" height="50" relative="1" as="geometry">
            <mxPoint x="474" y="284" as="sourcePoint" />
            <mxPoint x="521" y="330" as="targetPoint" />
          </mxGeometry>
        </mxCell>
        <mxCell id="ItAPapNalUJXnHxEnPfn-18" value="&lt;p align=&quot;center&quot; class=&quot;MsoNormal&quot;&gt;&lt;b&gt;Гарно&lt;/b&gt;&lt;/p&gt;" style="text;html=1;strokeColor=none;fillColor=none;align=center;verticalAlign=middle;whiteSpace=wrap;rounded=0;" vertex="1" parent="1">
          <mxGeometry x="501" y="280" width="60" height="30" as="geometry" />
        </mxCell>
        <mxCell id="ItAPapNalUJXnHxEnPfn-20" value="Вміння стріляти з тяжкого озброєння" style="ellipse;whiteSpace=wrap;html=1;" vertex="1" parent="1">
          <mxGeometry x="205" y="320" width="140" height="90" as="geometry" />
        </mxCell>
        <mxCell id="ItAPapNalUJXnHxEnPfn-24" value="" style="endArrow=classic;html=1;rounded=0;exitX=0.108;exitY=0.814;exitDx=0;exitDy=0;exitPerimeter=0;" edge="1" parent="1">
          <mxGeometry width="50" height="50" relative="1" as="geometry">
            <mxPoint x="220.12000000000012" y="398.2600000000001" as="sourcePoint" />
            <mxPoint x="180" y="435" as="targetPoint" />
          </mxGeometry>
        </mxCell>
        <mxCell id="ItAPapNalUJXnHxEnPfn-25" value="&lt;p align=&quot;center&quot; class=&quot;MsoNormal&quot;&gt;&lt;b&gt;Погано&lt;/b&gt;&lt;/p&gt;" style="text;html=1;strokeColor=none;fillColor=none;align=center;verticalAlign=middle;whiteSpace=wrap;rounded=0;" vertex="1" parent="1">
          <mxGeometry x="144" y="395" width="60" height="30" as="geometry" />
        </mxCell>
        <mxCell id="ItAPapNalUJXnHxEnPfn-26" value="" style="endArrow=classic;html=1;rounded=0;exitX=0.896;exitY=0.789;exitDx=0;exitDy=0;exitPerimeter=0;entryX=0.449;entryY=-0.077;entryDx=0;entryDy=0;entryPerimeter=0;" edge="1" parent="1" source="ItAPapNalUJXnHxEnPfn-20" target="ItAPapNalUJXnHxEnPfn-29">
          <mxGeometry width="50" height="50" relative="1" as="geometry">
            <mxPoint x="333" y="399" as="sourcePoint" />
            <mxPoint x="380" y="445" as="targetPoint" />
          </mxGeometry>
        </mxCell>
        <mxCell id="ItAPapNalUJXnHxEnPfn-27" value="&lt;p align=&quot;center&quot; class=&quot;MsoNormal&quot;&gt;&lt;b&gt;Гарно&lt;/b&gt;&lt;/p&gt;" style="text;html=1;strokeColor=none;fillColor=none;align=center;verticalAlign=middle;whiteSpace=wrap;rounded=0;" vertex="1" parent="1">
          <mxGeometry x="360" y="395" width="60" height="25" as="geometry" />
        </mxCell>
        <mxCell id="ItAPapNalUJXnHxEnPfn-28" value="Знання ландшафту карти" style="ellipse;whiteSpace=wrap;html=1;" vertex="1" parent="1">
          <mxGeometry x="-30" y="540" width="130" height="80" as="geometry" />
        </mxCell>
        <mxCell id="ItAPapNalUJXnHxEnPfn-29" value="" style="rounded=0;whiteSpace=wrap;html=1;" vertex="1" parent="1">
          <mxGeometry x="320" y="440" width="120" height="60" as="geometry" />
        </mxCell>
        <mxCell id="ItAPapNalUJXnHxEnPfn-30" value="Клас =&amp;nbsp;Труба" style="text;html=1;strokeColor=none;fillColor=none;align=center;verticalAlign=middle;whiteSpace=wrap;rounded=0;" vertex="1" parent="1">
          <mxGeometry x="335" y="455" width="90" height="25" as="geometry" />
        </mxCell>
        <mxCell id="ItAPapNalUJXnHxEnPfn-31" value="" style="endArrow=classic;html=1;rounded=0;exitX=0.112;exitY=0.812;exitDx=0;exitDy=0;exitPerimeter=0;" edge="1" parent="1" source="ItAPapNalUJXnHxEnPfn-28">
          <mxGeometry width="50" height="50" relative="1" as="geometry">
            <mxPoint x="-19.87999999999988" y="608.2600000000001" as="sourcePoint" />
            <mxPoint x="-50" y="650" as="targetPoint" />
          </mxGeometry>
        </mxCell>
        <mxCell id="ItAPapNalUJXnHxEnPfn-32" value="&lt;p align=&quot;center&quot; class=&quot;MsoNormal&quot;&gt;&lt;b&gt;Високий рівень&lt;/b&gt;&lt;/p&gt;" style="text;html=1;strokeColor=none;fillColor=none;align=center;verticalAlign=middle;whiteSpace=wrap;rounded=0;" vertex="1" parent="1">
          <mxGeometry x="-96" y="605" width="60" height="30" as="geometry" />
        </mxCell>
        <mxCell id="ItAPapNalUJXnHxEnPfn-33" value="" style="endArrow=classic;html=1;rounded=0;exitX=0.898;exitY=0.812;exitDx=0;exitDy=0;exitPerimeter=0;" edge="1" parent="1" source="ItAPapNalUJXnHxEnPfn-28">
          <mxGeometry width="50" height="50" relative="1" as="geometry">
            <mxPoint x="93" y="609" as="sourcePoint" />
            <mxPoint x="140" y="655" as="targetPoint" />
          </mxGeometry>
        </mxCell>
        <mxCell id="ItAPapNalUJXnHxEnPfn-34" value="&lt;p align=&quot;center&quot; class=&quot;MsoNormal&quot;&gt;&lt;b&gt;Низький рівень&amp;nbsp;&lt;/b&gt;&lt;/p&gt;" style="text;html=1;strokeColor=none;fillColor=none;align=center;verticalAlign=middle;whiteSpace=wrap;rounded=0;" vertex="1" parent="1">
          <mxGeometry x="110" y="605" width="60" height="30" as="geometry" />
        </mxCell>
        <mxCell id="ItAPapNalUJXnHxEnPfn-36" value="" style="rounded=0;whiteSpace=wrap;html=1;" vertex="1" parent="1">
          <mxGeometry x="80" y="655" width="120" height="60" as="geometry" />
        </mxCell>
        <mxCell id="ItAPapNalUJXnHxEnPfn-37" value="Клас =&amp;nbsp;Сквадний" style="text;html=1;strokeColor=none;fillColor=none;align=center;verticalAlign=middle;whiteSpace=wrap;rounded=0;" vertex="1" parent="1">
          <mxGeometry x="95" y="670" width="90" height="25" as="geometry" />
        </mxCell>
        <mxCell id="ItAPapNalUJXnHxEnPfn-42" value="" style="endArrow=classic;html=1;rounded=0;exitX=1.022;exitY=0.412;exitDx=0;exitDy=0;exitPerimeter=0;entryX=0.25;entryY=0;entryDx=0;entryDy=0;" edge="1" parent="1" target="ItAPapNalUJXnHxEnPfn-44" source="ItAPapNalUJXnHxEnPfn-10">
          <mxGeometry width="50" height="50" relative="1" as="geometry">
            <mxPoint x="885" y="144.5" as="sourcePoint" />
            <mxPoint x="875" y="312.5" as="targetPoint" />
            <Array as="points" />
          </mxGeometry>
        </mxCell>
        <mxCell id="ItAPapNalUJXnHxEnPfn-47" value="" style="endArrow=classic;html=1;rounded=0;exitX=0.5;exitY=1;exitDx=0;exitDy=0;entryX=0.453;entryY=-0.003;entryDx=0;entryDy=0;entryPerimeter=0;" edge="1" parent="1" source="ItAPapNalUJXnHxEnPfn-10" target="ItAPapNalUJXnHxEnPfn-48">
          <mxGeometry width="50" height="50" relative="1" as="geometry">
            <mxPoint x="745" y="432.5" as="sourcePoint" />
            <mxPoint x="755" y="362.5" as="targetPoint" />
          </mxGeometry>
        </mxCell>
        <mxCell id="ItAPapNalUJXnHxEnPfn-52" value="" style="endArrow=classic;html=1;rounded=0;exitX=0.879;exitY=1.007;exitDx=0;exitDy=0;exitPerimeter=0;" edge="1" parent="1" source="ItAPapNalUJXnHxEnPfn-22">
          <mxGeometry width="50" height="50" relative="1" as="geometry">
            <mxPoint x="590" y="390" as="sourcePoint" />
            <mxPoint x="650" y="440" as="targetPoint" />
            <Array as="points" />
          </mxGeometry>
        </mxCell>
        <mxCell id="ItAPapNalUJXnHxEnPfn-53" value="" style="endArrow=classic;html=1;rounded=0;exitX=0.25;exitY=1;exitDx=0;exitDy=0;" edge="1" parent="1" source="ItAPapNalUJXnHxEnPfn-22">
          <mxGeometry width="50" height="50" relative="1" as="geometry">
            <mxPoint x="575" y="595" as="sourcePoint" />
            <mxPoint x="520" y="440" as="targetPoint" />
          </mxGeometry>
        </mxCell>
        <mxCell id="ItAPapNalUJXnHxEnPfn-61" value="" style="group" vertex="1" connectable="0" parent="1">
          <mxGeometry x="850" y="330" width="120" height="60" as="geometry" />
        </mxCell>
        <mxCell id="ItAPapNalUJXnHxEnPfn-44" value="" style="rounded=0;whiteSpace=wrap;html=1;" vertex="1" parent="ItAPapNalUJXnHxEnPfn-61">
          <mxGeometry width="120" height="60" as="geometry" />
        </mxCell>
        <mxCell id="ItAPapNalUJXnHxEnPfn-45" value="Клас =&amp;nbsp;Польовий медик&lt;br&gt;&lt;br&gt;&lt;div style=&quot;overflow: hidden; position: relative; outline: 0px; color: rgb(32, 33, 36); font-family: arial, sans-serif; font-size: 0px; text-align: start; background-color: rgb(248, 249, 250);&quot; id=&quot;tw-target-rmn-container&quot; class=&quot;tw-target-rmn tw-ta-container F0azHf tw-nfl&quot;&gt;&lt;/div&gt;" style="text;html=1;strokeColor=none;fillColor=none;align=center;verticalAlign=middle;whiteSpace=wrap;rounded=0;" vertex="1" parent="ItAPapNalUJXnHxEnPfn-61">
          <mxGeometry x="15" y="25" width="90" height="25" as="geometry" />
        </mxCell>
        <mxCell id="ItAPapNalUJXnHxEnPfn-62" value="" style="group" vertex="1" connectable="0" parent="1">
          <mxGeometry x="650" y="440" width="120" height="60" as="geometry" />
        </mxCell>
        <mxCell id="ItAPapNalUJXnHxEnPfn-56" value="" style="rounded=0;whiteSpace=wrap;html=1;" vertex="1" parent="ItAPapNalUJXnHxEnPfn-62">
          <mxGeometry width="120" height="60" as="geometry" />
        </mxCell>
        <mxCell id="ItAPapNalUJXnHxEnPfn-57" value="Клас =&amp;nbsp;Кулеметник" style="text;html=1;strokeColor=none;fillColor=none;align=center;verticalAlign=middle;whiteSpace=wrap;rounded=0;" vertex="1" parent="ItAPapNalUJXnHxEnPfn-62">
          <mxGeometry x="15" y="17.5" width="90" height="27.5" as="geometry" />
        </mxCell>
        <mxCell id="ItAPapNalUJXnHxEnPfn-63" value="" style="group" vertex="1" connectable="0" parent="1">
          <mxGeometry x="685" y="335" width="120" height="60" as="geometry" />
        </mxCell>
        <mxCell id="ItAPapNalUJXnHxEnPfn-48" value="" style="rounded=0;whiteSpace=wrap;html=1;" vertex="1" parent="ItAPapNalUJXnHxEnPfn-63">
          <mxGeometry width="120" height="60" as="geometry" />
        </mxCell>
        <mxCell id="ItAPapNalUJXnHxEnPfn-49" value="Клас = Медик-штурмовик&lt;br&gt;&lt;div style=&quot;overflow: hidden; position: relative; outline: 0px; color: rgb(32, 33, 36); font-family: arial, sans-serif; font-size: 0px; text-align: start; background-color: rgb(248, 249, 250);&quot; id=&quot;tw-target-rmn-container&quot; class=&quot;tw-target-rmn tw-ta-container F0azHf tw-nfl&quot;&gt;&lt;/div&gt;" style="text;html=1;strokeColor=none;fillColor=none;align=center;verticalAlign=middle;whiteSpace=wrap;rounded=0;" vertex="1" parent="ItAPapNalUJXnHxEnPfn-63">
          <mxGeometry x="15" y="17.5" width="90" height="25" as="geometry" />
        </mxCell>
        <mxCell id="ItAPapNalUJXnHxEnPfn-64" value="" style="group" vertex="1" connectable="0" parent="1">
          <mxGeometry x="655" y="227.5" width="120" height="60" as="geometry" />
        </mxCell>
        <mxCell id="ItAPapNalUJXnHxEnPfn-10" value="" style="rounded=0;whiteSpace=wrap;html=1;" vertex="1" parent="ItAPapNalUJXnHxEnPfn-64">
          <mxGeometry width="120" height="60" as="geometry" />
        </mxCell>
        <mxCell id="ItAPapNalUJXnHxEnPfn-12" value="Клас =&amp;nbsp;Медик" style="text;html=1;strokeColor=none;fillColor=none;align=center;verticalAlign=middle;whiteSpace=wrap;rounded=0;" vertex="1" parent="ItAPapNalUJXnHxEnPfn-64">
          <mxGeometry x="15" y="15" width="90" height="30" as="geometry" />
        </mxCell>
        <mxCell id="ItAPapNalUJXnHxEnPfn-65" value="" style="group" vertex="1" connectable="0" parent="1">
          <mxGeometry x="440" y="100" width="275" height="115" as="geometry" />
        </mxCell>
        <mxCell id="ItAPapNalUJXnHxEnPfn-1" value="" style="ellipse;whiteSpace=wrap;html=1;" vertex="1" parent="ItAPapNalUJXnHxEnPfn-65">
          <mxGeometry width="240" height="100" as="geometry" />
        </mxCell>
        <mxCell id="ItAPapNalUJXnHxEnPfn-2" value="&lt;b&gt;годин у грі &amp;lt; 10 годин?&lt;/b&gt;" style="text;html=1;strokeColor=none;fillColor=none;align=center;verticalAlign=middle;whiteSpace=wrap;rounded=0;" vertex="1" parent="ItAPapNalUJXnHxEnPfn-65">
          <mxGeometry y="30" width="240" height="40" as="geometry" />
        </mxCell>
        <mxCell id="ItAPapNalUJXnHxEnPfn-3" value="" style="endArrow=classic;html=1;rounded=0;exitX=0.235;exitY=0.907;exitDx=0;exitDy=0;exitPerimeter=0;" edge="1" parent="ItAPapNalUJXnHxEnPfn-65" target="ItAPapNalUJXnHxEnPfn-11">
          <mxGeometry width="50" height="50" relative="1" as="geometry">
            <mxPoint x="27.40000000000009" y="80.69999999999993" as="sourcePoint" />
            <mxPoint x="-9" y="120" as="targetPoint" />
          </mxGeometry>
        </mxCell>
        <mxCell id="ItAPapNalUJXnHxEnPfn-9" value="&lt;p align=&quot;center&quot; class=&quot;MsoNormal&quot;&gt;&lt;b&gt;FALSE&lt;/b&gt;&lt;/p&gt;" style="text;html=1;strokeColor=none;fillColor=none;align=center;verticalAlign=middle;whiteSpace=wrap;rounded=0;" vertex="1" parent="ItAPapNalUJXnHxEnPfn-65">
          <mxGeometry x="215" y="85" width="60" height="30" as="geometry" />
        </mxCell>
        <mxCell id="ItAPapNalUJXnHxEnPfn-66" value="" style="group" vertex="1" connectable="0" parent="1">
          <mxGeometry x="470" y="442.5" width="120" height="60" as="geometry" />
        </mxCell>
        <mxCell id="ItAPapNalUJXnHxEnPfn-54" value="" style="rounded=0;whiteSpace=wrap;html=1;" vertex="1" parent="ItAPapNalUJXnHxEnPfn-66">
          <mxGeometry width="120" height="60" as="geometry" />
        </mxCell>
        <mxCell id="ItAPapNalUJXnHxEnPfn-55" value="Клас =&amp;nbsp;Важкий стрілець" style="text;html=1;strokeColor=none;fillColor=none;align=center;verticalAlign=middle;whiteSpace=wrap;rounded=0;" vertex="1" parent="ItAPapNalUJXnHxEnPfn-66">
          <mxGeometry x="15" y="17.5" width="90" height="27.5" as="geometry" />
        </mxCell>
        <mxCell id="ItAPapNalUJXnHxEnPfn-67" value="" style="group" vertex="1" connectable="0" parent="1">
          <mxGeometry x="485" y="335" width="120" height="60" as="geometry" />
        </mxCell>
        <mxCell id="ItAPapNalUJXnHxEnPfn-22" value="" style="rounded=0;whiteSpace=wrap;html=1;" vertex="1" parent="ItAPapNalUJXnHxEnPfn-67">
          <mxGeometry width="120" height="60" as="geometry" />
        </mxCell>
        <mxCell id="ItAPapNalUJXnHxEnPfn-23" value="Клас = Стрілець" style="text;html=1;strokeColor=none;fillColor=none;align=center;verticalAlign=middle;whiteSpace=wrap;rounded=0;" vertex="1" parent="ItAPapNalUJXnHxEnPfn-67">
          <mxGeometry x="15" y="15" width="90" height="30" as="geometry" />
        </mxCell>
        <mxCell id="ItAPapNalUJXnHxEnPfn-68" value="Вміння керувати транспортом" style="ellipse;whiteSpace=wrap;html=1;" vertex="1" parent="1">
          <mxGeometry x="90" y="432.5" width="130" height="80" as="geometry" />
        </mxCell>
        <mxCell id="ItAPapNalUJXnHxEnPfn-72" value="" style="endArrow=classic;html=1;rounded=0;exitX=0.108;exitY=0.814;exitDx=0;exitDy=0;exitPerimeter=0;entryX=0.692;entryY=0;entryDx=0;entryDy=0;entryPerimeter=0;" edge="1" parent="1" target="ItAPapNalUJXnHxEnPfn-28">
          <mxGeometry width="50" height="50" relative="1" as="geometry">
            <mxPoint x="113.06000000000012" y="503.2600000000001" as="sourcePoint" />
            <mxPoint x="72.94" y="540" as="targetPoint" />
          </mxGeometry>
        </mxCell>
        <mxCell id="ItAPapNalUJXnHxEnPfn-73" value="&lt;p align=&quot;center&quot; class=&quot;MsoNormal&quot;&gt;&lt;b&gt;Погано&lt;/b&gt;&lt;/p&gt;" style="text;html=1;strokeColor=none;fillColor=none;align=center;verticalAlign=middle;whiteSpace=wrap;rounded=0;" vertex="1" parent="1">
          <mxGeometry x="36.94" y="500" width="60" height="30" as="geometry" />
        </mxCell>
        <mxCell id="ItAPapNalUJXnHxEnPfn-74" value="" style="endArrow=classic;html=1;rounded=0;exitX=0.896;exitY=0.789;exitDx=0;exitDy=0;exitPerimeter=0;entryX=0;entryY=0;entryDx=0;entryDy=0;" edge="1" parent="1" target="ItAPapNalUJXnHxEnPfn-76">
          <mxGeometry width="50" height="50" relative="1" as="geometry">
            <mxPoint x="200" y="502.5" as="sourcePoint" />
            <mxPoint x="270" y="550" as="targetPoint" />
          </mxGeometry>
        </mxCell>
        <mxCell id="ItAPapNalUJXnHxEnPfn-75" value="&lt;p align=&quot;center&quot; class=&quot;MsoNormal&quot;&gt;&lt;b&gt;Гарно&lt;/b&gt;&lt;/p&gt;" style="text;html=1;strokeColor=none;fillColor=none;align=center;verticalAlign=middle;whiteSpace=wrap;rounded=0;" vertex="1" parent="1">
          <mxGeometry x="220" y="500" width="60" height="25" as="geometry" />
        </mxCell>
        <mxCell id="ItAPapNalUJXnHxEnPfn-76" value="" style="rounded=0;whiteSpace=wrap;html=1;" vertex="1" parent="1">
          <mxGeometry x="270" y="540" width="120" height="60" as="geometry" />
        </mxCell>
        <mxCell id="ItAPapNalUJXnHxEnPfn-77" value="Клас =&amp;nbsp;Водій" style="text;html=1;strokeColor=none;fillColor=none;align=center;verticalAlign=middle;whiteSpace=wrap;rounded=0;" vertex="1" parent="1">
          <mxGeometry x="276" y="557.5" width="100" height="25" as="geometry" />
        </mxCell>
        <mxCell id="ItAPapNalUJXnHxEnPfn-79" value="" style="endArrow=classic;html=1;rounded=0;exitX=0.387;exitY=0.986;exitDx=0;exitDy=0;exitPerimeter=0;entryX=0.5;entryY=0;entryDx=0;entryDy=0;" edge="1" parent="1" source="ItAPapNalUJXnHxEnPfn-76" target="ItAPapNalUJXnHxEnPfn-82">
          <mxGeometry width="50" height="50" relative="1" as="geometry">
            <mxPoint x="525" y="405" as="sourcePoint" />
            <mxPoint x="292" y="650" as="targetPoint" />
          </mxGeometry>
        </mxCell>
        <mxCell id="ItAPapNalUJXnHxEnPfn-82" value="" style="rounded=0;whiteSpace=wrap;html=1;" vertex="1" parent="1">
          <mxGeometry x="225" y="655" width="110" height="57.5" as="geometry" />
        </mxCell>
        <mxCell id="ItAPapNalUJXnHxEnPfn-83" value="Клас =&amp;nbsp;Водій MRAP&lt;br&gt;&lt;br&gt;&lt;div style=&quot;overflow: hidden; position: relative; outline: 0px; color: rgb(32, 33, 36); font-family: arial, sans-serif; font-size: 0px; text-align: start; background-color: rgb(248, 249, 250);&quot; id=&quot;tw-target-rmn-container&quot; class=&quot;tw-target-rmn tw-ta-container F0azHf tw-nfl&quot;&gt;&lt;/div&gt;" style="text;html=1;strokeColor=none;fillColor=none;align=center;verticalAlign=middle;whiteSpace=wrap;rounded=0;" vertex="1" parent="1">
          <mxGeometry x="230" y="675" width="100" height="25" as="geometry" />
        </mxCell>
        <mxCell id="ItAPapNalUJXnHxEnPfn-84" value="" style="endArrow=classic;html=1;rounded=0;exitX=0.75;exitY=1;exitDx=0;exitDy=0;entryX=0.36;entryY=-0.021;entryDx=0;entryDy=0;entryPerimeter=0;" edge="1" parent="1" source="ItAPapNalUJXnHxEnPfn-76" target="ItAPapNalUJXnHxEnPfn-86">
          <mxGeometry width="50" height="50" relative="1" as="geometry">
            <mxPoint x="302" y="616" as="sourcePoint" />
            <mxPoint x="400" y="650" as="targetPoint" />
          </mxGeometry>
        </mxCell>
        <mxCell id="ItAPapNalUJXnHxEnPfn-86" value="" style="rounded=0;whiteSpace=wrap;html=1;" vertex="1" parent="1">
          <mxGeometry x="375" y="653.75" width="110" height="57.5" as="geometry" />
        </mxCell>
        <mxCell id="ItAPapNalUJXnHxEnPfn-87" value="Клас =&amp;nbsp;Водій БТР&lt;br&gt;&lt;br&gt;&lt;div style=&quot;overflow: hidden; position: relative; outline: 0px; color: rgb(32, 33, 36); font-family: arial, sans-serif; font-size: 0px; text-align: start; background-color: rgb(248, 249, 250);&quot; id=&quot;tw-target-rmn-container&quot; class=&quot;tw-target-rmn tw-ta-container F0azHf tw-nfl&quot;&gt;&lt;/div&gt;" style="text;html=1;strokeColor=none;fillColor=none;align=center;verticalAlign=middle;whiteSpace=wrap;rounded=0;" vertex="1" parent="1">
          <mxGeometry x="380" y="673.75" width="100" height="25" as="geometry" />
        </mxCell>
        <mxCell id="ItAPapNalUJXnHxEnPfn-88" value="" style="endArrow=classic;html=1;rounded=0;exitX=1;exitY=0.5;exitDx=0;exitDy=0;entryX=0.464;entryY=0.01;entryDx=0;entryDy=0;entryPerimeter=0;" edge="1" parent="1" source="ItAPapNalUJXnHxEnPfn-76" target="ItAPapNalUJXnHxEnPfn-89">
          <mxGeometry width="50" height="50" relative="1" as="geometry">
            <mxPoint x="370" y="610" as="sourcePoint" />
            <mxPoint x="550" y="650" as="targetPoint" />
            <Array as="points">
              <mxPoint x="561" y="570" />
            </Array>
          </mxGeometry>
        </mxCell>
        <mxCell id="ItAPapNalUJXnHxEnPfn-89" value="" style="rounded=0;whiteSpace=wrap;html=1;" vertex="1" parent="1">
          <mxGeometry x="510" y="653.75" width="110" height="57.5" as="geometry" />
        </mxCell>
        <mxCell id="ItAPapNalUJXnHxEnPfn-90" value="Клас =&amp;nbsp;Водій Танка&lt;br&gt;&lt;br&gt;&lt;div style=&quot;overflow: hidden; position: relative; outline: 0px; color: rgb(32, 33, 36); font-family: arial, sans-serif; font-size: 0px; text-align: start; background-color: rgb(248, 249, 250);&quot; id=&quot;tw-target-rmn-container&quot; class=&quot;tw-target-rmn tw-ta-container F0azHf tw-nfl&quot;&gt;&lt;/div&gt;" style="text;html=1;strokeColor=none;fillColor=none;align=center;verticalAlign=middle;whiteSpace=wrap;rounded=0;" vertex="1" parent="1">
          <mxGeometry x="515" y="673.75" width="100" height="25" as="geometry" />
        </mxCell>
        <mxCell id="ItAPapNalUJXnHxEnPfn-91" value="" style="endArrow=classic;html=1;rounded=0;entryX=0.367;entryY=0.021;entryDx=0;entryDy=0;entryPerimeter=0;" edge="1" parent="1" target="ItAPapNalUJXnHxEnPfn-92">
          <mxGeometry width="50" height="50" relative="1" as="geometry">
            <mxPoint x="550" y="570" as="sourcePoint" />
            <mxPoint x="690" y="650" as="targetPoint" />
            <Array as="points">
              <mxPoint x="690" y="570" />
            </Array>
          </mxGeometry>
        </mxCell>
        <mxCell id="ItAPapNalUJXnHxEnPfn-92" value="" style="rounded=0;whiteSpace=wrap;html=1;" vertex="1" parent="1">
          <mxGeometry x="650" y="653.75" width="110" height="57.5" as="geometry" />
        </mxCell>
        <mxCell id="ItAPapNalUJXnHxEnPfn-93" value="Клас =&amp;nbsp;Водій Постачання&lt;br&gt;&lt;br&gt;&lt;div style=&quot;overflow: hidden; position: relative; outline: 0px; color: rgb(32, 33, 36); font-family: arial, sans-serif; font-size: 0px; text-align: start; background-color: rgb(248, 249, 250);&quot; id=&quot;tw-target-rmn-container&quot; class=&quot;tw-target-rmn tw-ta-container F0azHf tw-nfl&quot;&gt;&lt;/div&gt;" style="text;html=1;strokeColor=none;fillColor=none;align=center;verticalAlign=middle;whiteSpace=wrap;rounded=0;" vertex="1" parent="1">
          <mxGeometry x="655" y="673.75" width="100" height="25" as="geometry" />
        </mxCell>
        <mxCell id="ItAPapNalUJXnHxEnPfn-94" value="" style="rounded=0;whiteSpace=wrap;html=1;" vertex="1" parent="1">
          <mxGeometry x="-130" y="651.25" width="130" height="60" as="geometry" />
        </mxCell>
        <mxCell id="ItAPapNalUJXnHxEnPfn-95" value="Клас =&amp;nbsp;Головний сквадний" style="text;html=1;strokeColor=none;fillColor=none;align=center;verticalAlign=middle;whiteSpace=wrap;rounded=0;" vertex="1" parent="1">
          <mxGeometry x="-115" y="666.25" width="105" height="25" as="geometry" />
        </mxCell>
      </root>
    </mxGraphModel>
  </diagram>
</mxfile>
